<svg width="18" height="18" viewBox="0 0 18 18" fill="none" xmlns="http://www.w3.org/2000/svg">
<path fill-rule="evenodd" clip-rule="evenodd" d="M3.17935 7.79352C3.19016 4.61308 5.77717 2.04358 8.95761 2.05436C12.1381 2.06519 14.7075 4.65221 14.6968 7.83265V7.89787C14.6576 9.96526 13.5033 11.8761 12.088 13.3696C11.2787 14.2101 10.3749 14.9541 9.39457 15.587C9.13245 15.8137 8.74365 15.8137 8.48153 15.587C7.02015 14.6358 5.73755 13.4349 4.6924 12.0392C3.76086 10.8221 3.23198 9.34484 3.17935 7.81308V7.79352Z" stroke="#008ECC" stroke-linecap="round" stroke-linejoin="round"/>
<path d="M8.93804 9.75002C9.95737 9.75002 10.7837 8.92369 10.7837 7.90437C10.7837 6.88504 9.95737 6.05872 8.93804 6.05872C7.91872 6.05872 7.09239 6.88504 7.09239 7.90437C7.09239 8.92369 7.91872 9.75002 8.93804 9.75002Z" stroke="#008ECC" stroke-linecap="round" stroke-linejoin="round"/>
</svg>
